<?xml version="1.0" standalone="no"?>
<!DOCTYPE svg PUBLIC "-//W3C//DTD SVG 20010904//EN"
 "http://www.w3.org/TR/2001/REC-SVG-20010904/DTD/svg10.dtd">
<svg version="1.0" xmlns="http://www.w3.org/2000/svg"
 width="1280.000000pt" height="353.000000pt" viewBox="0 0 1280.000000 353.000000"
 preserveAspectRatio="xMidYMid meet">

<g transform="translate(0.000000,353.000000) scale(0.100000,-0.100000)"
fill="#000000" stroke="none">
<path d="M0 1765 l0 -1755 1760 0 1760 0 0 1755 0 1755 -1760 0 -1760 0 0
-1755z m2115 765 c396 -85 677 -285 781 -556 36 -92 44 -257 19 -354 -82 -318
-431 -567 -888 -634 -135 -20 -400 -21 -532 -1 -462 70 -807 316 -890 635 -25
97 -17 262 19 354 111 288 432 501 862 571 138 22 498 14 629 -15z"/>
<path d="M1470 2440 c-196 -35 -390 -122 -425 -191 -47 -90 25 -180 185 -233
56 -19 225 -56 255 -56 1 0 6 28 9 61 19 166 82 332 152 402 l37 37 -54 -1
c-30 0 -101 -9 -159 -19z"/>
<path d="M1874 2423 c70 -70 133 -236 152 -402 3 -33 8 -61 9 -61 30 0 199 37
255 56 211 70 263 201 118 296 -117 77 -369 148 -527 148 l-44 0 37 -37z"/>
<path d="M1695 2237 c-42 -44 -84 -147 -100 -244 l-7 -43 172 0 172 0 -7 43
c-4 23 -19 78 -33 121 -29 90 -90 166 -132 166 -15 0 -39 -16 -65 -43z"/>
<path d="M840 2074 c-195 -323 -11 -724 416 -907 124 -53 303 -97 395 -97 l39
0 -38 35 c-100 90 -172 339 -172 597 l0 77 -37 6 c-190 33 -386 110 -468 186
-46 42 -85 104 -85 133 0 33 -18 22 -50 -30z"/>
<path d="M2635 2115 c-20 -61 -33 -84 -69 -123 -84 -92 -265 -168 -488 -206
l-38 -7 0 -77 c0 -245 -80 -517 -177 -602 l-34 -30 40 0 c46 0 183 25 261 47
160 46 332 146 440 256 126 128 185 263 185 422 0 121 -27 211 -94 310 -18 27
-21 27 -26 10z"/>
<path d="M1580 1703 c0 -142 58 -320 118 -359 35 -23 89 -23 124 0 60 39 118
217 118 359 l0 62 -180 0 -180 0 0 -62z"/>
<path d="M6221 2489 c-264 -68 -465 -273 -532 -539 -18 -70 -21 -104 -17 -204
9 -209 69 -347 218 -496 203 -203 486 -268 762 -174 335 114 544 463 487 814
-26 164 -86 277 -215 406 -77 78 -105 99 -185 138 -52 25 -123 52 -159 60 -93
22 -266 20 -359 -5z m284 -264 c189 -50 318 -233 317 -450 0 -150 -45 -257
-146 -353 -168 -159 -414 -147 -567 26 -193 220 -141 593 104 736 92 54 188
68 292 41z"/>
<path d="M9150 2491 c-360 -97 -597 -442 -551 -803 36 -280 221 -514 481 -609
204 -74 407 -59 613 47 104 54 238 191 295 301 106 205 114 446 22 649 -96
211 -286 368 -507 418 -97 22 -268 20 -353 -3z m346 -290 c157 -73 254 -238
254 -431 0 -184 -104 -356 -257 -428 -51 -24 -70 -27 -158 -27 -93 0 -105 2
-167 33 -111 54 -209 180 -237 303 -26 112 -8 256 44 359 51 101 165 193 271
220 70 17 178 5 250 -29z"/>
<path d="M4400 2335 l0 -135 220 0 220 0 2 -567 3 -568 158 -3 157 -3 0 571 0
570 220 0 220 0 0 135 0 135 -600 0 -600 0 0 -135z"/>
<path d="M7177 2438 c11 -18 138 -217 281 -441 l262 -409 0 -264 0 -264 155 0
155 0 0 261 0 260 276 432 c152 238 279 438 281 445 4 9 -34 12 -170 12 l-175
0 -182 -286 -183 -285 -53 83 c-29 46 -111 173 -181 283 l-129 200 -178 3
-178 2 19 -32z"/>
<path d="M10120 2335 l0 -135 220 0 220 0 2 -567 3 -568 155 0 155 0 3 568 2
567 220 0 220 0 0 135 0 135 -600 0 -600 0 0 -135z"/>
<path d="M11817 2463 c-11 -18 -567 -1385 -567 -1394 0 -5 72 -9 174 -9 l173
0 38 98 c20 53 50 132 67 175 l30 77 291 -2 291 -3 66 -170 65 -170 178 -3
c101 -1 177 1 175 6 -1 5 -131 323 -288 706 l-284 696 -203 0 c-111 0 -204 -3
-206 -7z m311 -568 l88 -230 -189 -3 c-105 -1 -192 -1 -194 2 -4 3 171 468
184 489 8 13 5 21 111 -258z"/>
</g>
</svg>
